<svg width="107" height="60" viewBox="0 0 107 60" fill="none" xmlns="http://www.w3.org/2000/svg">
<path d="M40.7624 54.394C40.7624 55.3391 40.5451 56.0993 40.1107 56.6748C39.6762 57.2464 39.0931 57.5322 38.3614 57.5322C37.5801 57.5322 36.9761 57.2559 36.5493 56.7033L36.4978 57.4179H35.526V48.6377H36.5836V51.9131C37.0104 51.3834 37.5992 51.1186 38.35 51.1186C39.1007 51.1186 39.6895 51.4025 40.1164 51.9703C40.547 52.5381 40.7624 53.3155 40.7624 54.3025V54.394ZM39.7048 54.2739C39.7048 53.5537 39.5657 52.9973 39.2875 52.6048C39.0093 52.2123 38.6091 52.016 38.087 52.016C37.3896 52.016 36.8884 52.3399 36.5836 52.9878V55.663C36.9075 56.3108 37.4125 56.6348 38.0984 56.6348C38.6053 56.6348 38.9998 56.4385 39.2818 56.046C39.5638 55.6535 39.7048 55.0628 39.7048 54.2739Z" fill="#627282"/>
<path d="M44.0551 55.8688L45.4956 51.2329H46.6275L44.1408 58.3725C43.7559 59.4014 43.1442 59.9159 42.3058 59.9159L42.1057 59.8987L41.7113 59.8244V58.967L41.9971 58.9899C42.3554 58.9899 42.6336 58.9174 42.8317 58.7726C43.0337 58.6278 43.1995 58.363 43.3291 57.9781L43.5635 57.3493L41.3569 51.2329H42.5116L44.0551 55.8688Z" fill="#627282"/>
<path d="M52.4012 49.095L54.8022 55.4744L57.1974 49.095H59.0667V57.4179H57.6261V54.6741L57.7691 51.0042L55.3109 57.4179H54.2762L51.8239 51.0099L51.9668 54.6741V57.4179H50.5262V49.095H52.4012Z" fill="#627282"/>
<path d="M61.8733 57.4179H60.4842V51.2329H61.8733V57.4179ZM60.3984 49.6266C60.3984 49.4132 60.4651 49.236 60.5985 49.095C60.7357 48.954 60.9301 48.8835 61.1816 48.8835C61.4331 48.8835 61.6275 48.954 61.7647 49.095C61.9019 49.236 61.9705 49.4132 61.9705 49.6266C61.9705 49.8362 61.9019 50.0115 61.7647 50.1525C61.6275 50.2897 61.4331 50.3583 61.1816 50.3583C60.9301 50.3583 60.7357 50.2897 60.5985 50.1525C60.4651 50.0115 60.3984 49.8362 60.3984 49.6266Z" fill="#627282"/>
<path d="M62.8791 54.2682C62.8791 53.6623 62.9992 53.1173 63.2393 52.6334C63.4794 52.1456 63.8167 51.7721 64.2511 51.513C64.6856 51.25 65.1848 51.1186 65.7488 51.1186C66.5835 51.1186 67.2599 51.3872 67.7782 51.9245C68.3003 52.4619 68.5823 53.1745 68.6243 54.0624L68.63 54.3883C68.63 54.998 68.5118 55.5429 68.2756 56.0231C68.0431 56.5033 67.7077 56.8748 67.2694 57.1378C66.835 57.4007 66.3319 57.5322 65.7603 57.5322C64.8876 57.5322 64.1882 57.2426 63.6623 56.6633C63.1402 56.0803 62.8791 55.3048 62.8791 54.3368V54.2682ZM64.2683 54.3883C64.2683 55.0247 64.3997 55.5239 64.6627 55.8859C64.9257 56.2441 65.2915 56.4233 65.7603 56.4233C66.229 56.4233 66.593 56.2403 66.8521 55.8745C67.1151 55.5086 67.2466 54.9732 67.2466 54.2682C67.2466 53.6432 67.1113 53.1478 66.8407 52.782C66.5739 52.4161 66.21 52.2332 65.7488 52.2332C65.2953 52.2332 64.9352 52.4142 64.6684 52.7763C64.4017 53.1345 64.2683 53.6718 64.2683 54.3883Z" fill="#627282"/>
<path d="M69.6873 57.4179V49.095H72.1454C72.8809 49.095 73.5326 49.2589 74.1005 49.5866C74.6721 49.9143 75.1142 50.3793 75.4267 50.9814C75.7392 51.5835 75.8955 52.2732 75.8955 53.0507V53.4679C75.8955 54.2568 75.7373 54.9504 75.421 55.5487C75.1085 56.147 74.6607 56.6081 74.0776 56.932C73.4983 57.2559 72.8333 57.4179 72.0825 57.4179H69.6873ZM71.1336 50.2611V56.2632H72.0768C72.8352 56.2632 73.4164 56.0269 73.8204 55.5544C74.2281 55.078 74.4358 54.3959 74.4435 53.508V53.0449C74.4435 52.1418 74.2472 51.452 73.8547 50.9756C73.4621 50.4993 72.8924 50.2611 72.1454 50.2611H71.1336Z" fill="#627282"/>
<path d="M76.8157 54.2682C76.8157 53.6623 76.9357 53.1173 77.1758 52.6334C77.4159 52.1456 77.7532 51.7721 78.1877 51.513C78.6221 51.25 79.1214 51.1186 79.6854 51.1186C80.52 51.1186 81.1965 51.3872 81.7148 51.9245C82.2369 52.4619 82.5189 53.1745 82.5608 54.0624L82.5665 54.3883C82.5665 54.998 82.4484 55.5429 82.2121 56.0231C81.9796 56.5033 81.6443 56.8748 81.206 57.1378C80.7715 57.4007 80.2685 57.5322 79.6968 57.5322C78.8241 57.5322 78.1248 57.2426 77.5989 56.6633C77.0768 56.0803 76.8157 55.3048 76.8157 54.3368V54.2682ZM78.2048 54.3883C78.2048 55.0247 78.3363 55.5239 78.5993 55.8859C78.8622 56.2441 79.2281 56.4233 79.6968 56.4233C80.1656 56.4233 80.5295 56.2403 80.7887 55.8745C81.0517 55.5086 81.1831 54.9732 81.1831 54.2682C81.1831 53.6432 81.0478 53.1478 80.7773 52.782C80.5105 52.4161 80.1465 52.2332 79.6854 52.2332C79.2319 52.2332 78.8717 52.4142 78.605 52.7763C78.3382 53.1345 78.2048 53.6718 78.2048 54.3883Z" fill="#627282"/>
<path d="M85.2302 49.7295V51.2329H86.3221V52.2618H85.2302V55.7144C85.2302 55.9507 85.2759 56.1222 85.3674 56.2289C85.4627 56.3318 85.6304 56.3832 85.8704 56.3832C86.0305 56.3832 86.1925 56.3642 86.3564 56.3261V57.4007C86.04 57.4884 85.7352 57.5322 85.4417 57.5322C84.3746 57.5322 83.8411 56.9434 83.8411 55.7659V52.2618H82.8235V51.2329H83.8411V49.7295H85.2302Z" fill="#627282"/>
<path d="M88.6253 49.7295V51.2329H89.7172V52.2618H88.6253V55.7144C88.6253 55.9507 88.6711 56.1222 88.7625 56.2289C88.8578 56.3318 89.0255 56.3832 89.2656 56.3832C89.4256 56.3832 89.5876 56.3642 89.7515 56.3261V57.4007C89.4352 57.4884 89.1303 57.5322 88.8368 57.5322C87.7698 57.5322 87.2362 56.9434 87.2362 55.7659V52.2618H86.2187V51.2329H87.2362V49.7295H88.6253Z" fill="#627282"/>
<path d="M90.3517 54.2682C90.3517 53.6623 90.4718 53.1173 90.7119 52.6334C90.952 52.1456 91.2892 51.7721 91.7237 51.513C92.1581 51.25 92.6574 51.1186 93.2214 51.1186C94.056 51.1186 94.7325 51.3872 95.2508 51.9245C95.7729 52.4619 96.0549 53.1745 96.0968 54.0624L96.1026 54.3883C96.1026 54.998 95.9844 55.5429 95.7481 56.0231C95.5157 56.5033 95.1803 56.8748 94.742 57.1378C94.3076 57.4007 93.8045 57.5322 93.2329 57.5322C92.3601 57.5322 91.6608 57.2426 91.1349 56.6633C90.6128 56.0803 90.3517 55.3048 90.3517 54.3368V54.2682ZM91.7408 54.3883C91.7408 55.0247 91.8723 55.5239 92.1353 55.8859C92.3982 56.2441 92.7641 56.4233 93.2329 56.4233C93.7016 56.4233 94.0656 56.2403 94.3247 55.8745C94.5877 55.5086 94.7192 54.9732 94.7192 54.2682C94.7192 53.6432 94.5839 53.1478 94.3133 52.782C94.0465 52.4161 93.6826 52.2332 93.2214 52.2332C92.7679 52.2332 92.4078 52.4142 92.141 52.7763C91.8742 53.1345 91.7408 53.6718 91.7408 54.3883Z" fill="#627282"/>
<path d="M100.264 52.5019C100.081 52.4714 99.8924 52.4562 99.698 52.4562C99.0616 52.4562 98.6328 52.7001 98.4118 53.1878V57.4179H97.0227V51.2329H98.3489L98.3832 51.9245C98.7186 51.3872 99.1835 51.1186 99.778 51.1186C99.9762 51.1186 100.14 51.1452 100.27 51.1986L100.264 52.5019Z" fill="#627282"/>
<path d="M103.625 57.5322C102.745 57.5322 102.03 57.2559 101.481 56.7033C100.936 56.147 100.664 55.4077 100.664 54.4854V54.3139C100.664 53.6966 100.782 53.1459 101.018 52.6619C101.259 52.1742 101.594 51.795 102.025 51.5244C102.455 51.2538 102.935 51.1186 103.465 51.1186C104.307 51.1186 104.957 51.3872 105.414 51.9245C105.876 52.4619 106.106 53.2221 106.106 54.2053V54.7655H102.065C102.106 55.2762 102.276 55.6801 102.573 55.9774C102.874 56.2746 103.252 56.4233 103.705 56.4233C104.342 56.4233 104.86 56.166 105.26 55.6516L106.009 56.3661C105.761 56.7357 105.43 57.0235 105.014 57.2292C104.603 57.4312 104.14 57.5322 103.625 57.5322ZM103.459 52.2332C103.078 52.2332 102.77 52.3666 102.533 52.6334C102.301 52.9001 102.152 53.2717 102.087 53.748H104.734V53.6451C104.704 53.1802 104.58 52.8296 104.363 52.5934C104.145 52.3533 103.844 52.2332 103.459 52.2332Z" fill="#627282"/>
<path fill-rule="evenodd" clip-rule="evenodd" d="M13.1547 25.0108C11.828 24.1921 10.1169 23.9102 8.56038 23.9102C6.2626 23.9102 4.05817 24.7946 2.42749 26.66C0.809164 28.5254 0 31.1197 0 34.4428C0 37.9636 0.802987 40.7382 2.40896 42.27C4.02729 43.7895 5.92105 44.5493 8.30095 44.5493C10.2632 44.5493 11.6043 44.054 12.5432 43.5598C13.482 43.0657 14.3092 42.4064 15 41.5041C15 44.3801 14.7927 45.9117 14.3233 46.9741C13.5327 48.7777 11.839 49.6934 9.2818 49.6934C7.66347 49.6934 6.47752 49.3228 5.72394 48.5816C5.24215 48.0998 4.92096 47.4142 4.76036 46.5247H1.36928C1.54223 48.563 2.35757 50.0578 3.81531 51.0091C5.27304 51.9727 7.05455 52.444 9.19173 52.444C13.0337 52.444 15.6625 51.1079 17.0461 48.4148C17.7873 46.9571 18.1579 44.9681 18.1579 42.448V24.3613H15V26.7984C14.4079 26.0248 13.9022 25.4721 13.1547 25.0108ZM13.5623 28.5872C14.5753 29.7731 15.0818 31.5953 15.0818 34.0537C15.0818 35.6844 14.8101 37.3594 14.2665 38.5824C13.2906 40.7443 11.0867 41.8253 8.69009 41.8253C7.15824 41.8253 5.69503 41.2447 4.78086 40.0834C3.87905 38.9098 3.42814 36.9568 3.42814 34.7208C3.42814 32.8183 3.6362 31.2721 4.11377 30.1067C5.04699 27.8293 6.82469 26.8565 9.17188 26.8565C10.7408 26.8565 12.5493 27.4012 13.5623 28.5872Z" fill="#00C3A5"/>
<path fill-rule="evenodd" clip-rule="evenodd" d="M31.015 24.3613H27.8571V51.9929H31.015V41.5041C31.5789 42.4064 32.5824 43.1965 33.1754 43.5671C34.1884 44.2219 35.4423 44.5493 36.9371 44.5493C38.8395 44.5493 40.5073 43.9625 41.9403 42.7889C44.201 40.9358 45.3383 38.0253 45.3383 33.7016C45.3383 30.502 44.5469 28.0436 42.978 26.3264C41.4091 24.5969 39.5005 23.9102 37.2521 23.9102C35.7326 23.9102 34.4108 24.2808 33.2866 25.022C32.4959 25.5161 31.6353 26.2222 31.015 27.1808V24.3613ZM40.3652 39.6943C39.3399 40.9914 38.0489 41.64 36.4923 41.64C34.1946 41.64 32.6133 40.6146 31.7485 38.5639C31.2915 37.4891 31.0629 36.3638 31.0629 34.8319C31.0629 32.9295 31.2915 31.5385 31.7485 30.3032C32.6009 27.993 34.1822 26.838 36.4923 26.838C38.7901 26.838 40.3714 27.7533 41.2361 29.9399C41.6932 31.0764 41.9287 32.4353 41.9287 34.0166C41.9287 36.6109 41.4029 38.3848 40.3652 39.6943Z" fill="#00C3A5"/>
<path fill-rule="evenodd" clip-rule="evenodd" d="M56.6165 23.9102C53.8534 23.9102 51.5697 24.888 49.8981 26.7884C48.2616 28.6488 47.3684 31.1452 47.3684 34.2296H47.369L47.3684 34.2298C47.3684 37.3143 48.2616 39.8106 49.8981 41.671C51.5697 43.5714 53.8534 44.5493 56.6165 44.5493C59.3797 44.5493 61.6634 43.5714 63.335 41.671C64.9715 39.8106 65.8647 37.3143 65.8647 34.2298L65.8641 34.2296H65.8647C65.8647 31.1452 64.9715 28.6488 63.335 26.7884C61.6634 24.888 59.3797 23.9102 56.6165 23.9102ZM50.7872 34.2298L50.7865 34.2296H50.7872C50.7872 32.2108 51.2821 30.4553 52.1713 29.0012C53.0954 27.49 54.5865 26.7344 56.6165 26.7344C58.6466 26.7344 60.1377 27.49 61.0618 29.0012C61.9509 30.4553 62.4459 32.2108 62.4459 34.2296H62.4464L62.4459 34.2298C62.4459 36.2486 61.9509 38.0041 61.0618 39.4582C60.1377 40.9694 58.6466 41.725 56.6165 41.725C54.5865 41.725 53.0954 40.9694 52.1713 39.4582C51.2821 38.0041 50.7872 36.2486 50.7872 34.2298Z" fill="#00C3A5"/>
<path d="M21.3158 24.3613H24.6992V44.0981H21.3158V24.3613Z" fill="#00C3A5"/>
<path d="M24.802 18.9471C24.802 19.9465 23.9969 20.7516 22.9975 20.7516C21.9981 20.7516 21.193 19.9465 21.193 18.9471C21.193 17.9477 22.005 17.1426 22.9975 17.1426C23.99 17.1426 24.802 17.9477 24.802 18.9471Z" fill="#00C3A5"/>
<path opacity="0.4" d="M24.7206 1.80451C24.7206 2.80393 23.9086 3.60902 22.9161 3.60902C21.9167 3.60902 21.1116 2.79699 21.1116 1.80451C21.1116 0.80509 21.9167 0 22.9161 0C23.9086 0 24.7206 0.81203 24.7206 1.80451Z" fill="#00C3A5"/>
<path opacity="0.7" d="M33.3835 10.3543C33.3835 11.3537 32.5715 12.1588 31.579 12.1588C30.5796 12.1588 29.7745 11.3468 29.7745 10.3543C29.7745 9.36183 30.5865 8.5498 31.579 8.5498C32.5715 8.5498 33.3835 9.35489 33.3835 10.3543Z" fill="#00C3A5"/>
<path opacity="0.15" d="M16.2406 10.3475C16.2406 11.3469 15.4301 12.152 14.4326 12.152C13.4351 12.152 12.6316 11.3469 12.6316 10.3475C12.6316 9.34809 13.4421 8.54301 14.4326 8.54301C15.4301 8.53607 16.2406 9.34809 16.2406 10.3475Z" fill="#00C3A5"/>
<path opacity="0.1" d="M17.4174 14.658C17.4174 15.6574 16.6053 16.4625 15.6129 16.4625C14.6134 16.4625 13.8083 15.6505 13.8083 14.658C13.8083 13.6655 14.6204 12.8535 15.6129 12.8535C16.6053 12.8535 17.4174 13.6586 17.4174 14.658Z" fill="#00C3A5"/>
<path opacity="0.2" d="M17.4038 6.10529C17.4038 7.10471 16.5917 7.9098 15.5992 7.9098C14.5998 7.9098 13.7947 7.10471 13.7947 6.10529C13.7947 5.10587 14.6068 4.30078 15.5992 4.30078C16.5987 4.30078 17.4038 5.10587 17.4038 6.10529Z" fill="#00C3A5"/>
<path opacity="0.8" d="M32.1936 14.6238C32.1936 15.6233 31.3885 16.4284 30.389 16.4284C29.3896 16.4284 28.5845 15.6163 28.5845 14.6238C28.5845 13.6314 29.3896 12.8193 30.389 12.8193C31.3885 12.8193 32.1936 13.6314 32.1936 14.6238Z" fill="#00C3A5"/>
<path opacity="0.6" d="M32.2002 6.07555C32.2002 7.07306 31.3882 7.8766 30.3957 7.8766C29.3963 7.8766 28.5912 7.07306 28.5912 6.07555C28.5912 5.07805 29.4032 4.26758 30.3957 4.26758C31.3882 4.26758 32.2002 5.07805 32.2002 6.07555Z" fill="#00C3A5"/>
<path opacity="0.05" d="M20.5192 17.7596C20.5192 18.759 19.7072 19.5641 18.7147 19.5641C17.7153 19.5641 16.9102 18.7521 16.9102 17.7596C16.9102 16.7671 17.7222 15.9551 18.7147 15.9551C19.7072 15.9482 20.5192 16.7602 20.5192 17.7596Z" fill="#00C3A5"/>
<path opacity="0.3" d="M20.526 2.97639C20.526 3.97581 19.7155 4.7809 18.718 4.7809C17.7205 4.7809 16.9169 3.96887 16.9169 2.97639C16.9169 1.97696 17.7274 1.17188 18.718 1.17188C19.7224 1.17188 20.526 1.97696 20.526 2.97639Z" fill="#00C3A5"/>
<path opacity="0.9" d="M29.0714 17.7596C29.0714 18.759 28.2663 19.5641 27.2669 19.5641C26.2674 19.5641 25.4623 18.7521 25.4623 17.7596C25.4623 16.7602 26.2674 15.9551 27.2669 15.9551C28.2663 15.9551 29.0714 16.7602 29.0714 17.7596Z" fill="#00C3A5"/>
<path opacity="0.5" d="M29.0849 2.96955C29.0849 3.96897 28.2798 4.77406 27.2804 4.77406C26.281 4.77406 25.4759 3.96203 25.4759 2.96955C25.4759 1.97013 26.281 1.16504 27.2804 1.16504C28.2798 1.16504 29.0849 1.97013 29.0849 2.96955Z" fill="#00C3A5"/>
</svg>
